<?xml version="1.1" encoding="UTF-8" ?>
<svg
  xmlns="http://www.w3.org/2000/svg"
  width="1024"
  height="1024"
  preserveAspectRatio="xMidYMid meet"
  viewBox="0 0 1024 1024"
>
  <g>
    <path d="M 512 1012 A 500 500 0 0 0 512 12 M 512 12 A 500 500 0 0 0 512 1012" fill="#000000"/>
    <path d="M 512 947 A 435 435 0 0 0 512 77 M 512 77 A 435 435 0 0 0 512 947" fill="#ffffff"/>
  </g>
  <g>
    <path d="M 512 752 A 240 240 0 0 0 512 272 M 512 272 A 240 240 0 0 0 512 752" fill="#000000"/>
    <path d="M 512 707 A 195 195 0 0 0 512 317 M 512 317 A 195 195 0 0 0 512 707" fill="#be6251"/>
    <path d="M 512 602 A 90 90 0 0 0 512 422 M 512 422 A 90 90 0 0 0 512 602" fill="#000000"/>
    <path d="M 512 562 A 50 50 0 0 0 512 462 M 512 462 A 50 50 0 0 0 512 562" fill="#ffffff"/>
  </g>
  <g>
    <path d="M 672 432 A 80 80 0 0 0 672 272 M 672 272 A 80 80 0 0 0 672 432" fill="#ffffff"/>
    <path d="M 617 437 A 30 30 0 0 0 617 377 M 617 377 A 30 30 0 0 0 617 437" fill="#ffffff"/>
  </g>
</svg>
